<svg xmlns="http://www.w3.org/2000/svg" xmlns:xlink="http://www.w3.org/1999/xlink" contentStyleType="text/css" data-diagram-type="CLASS" height="724px" preserveAspectRatio="none" style="width:659px;height:724px;background:#FFFFFF;" version="1.1" viewBox="0 0 659 724" width="659px" zoomAndPan="magnify"><defs/><g><!--class BellNote--><g class="entity" data-entity="BellNote" data-source-line="2" data-uid="ent0002" id="entity_BellNote"><rect fill="#F1F1F1" height="130.4414" rx="2.5" ry="2.5" style="stroke:#181818;stroke-width:0.5;" width="301.6865" x="7" y="537.3"/><ellipse cx="125.6309" cy="553.3" fill="#ADD1B2" rx="11" ry="11" style="stroke:#181818;stroke-width:1;"/><path d="M128.104,559.4431 Q127.5229,559.7419 126.8838,559.8913 Q126.2446,560.0407 125.5391,560.0407 Q123.0322,560.0407 121.7124,558.3889 Q120.3926,556.737 120.3926,553.6159 Q120.3926,550.4865 121.7124,548.8347 Q123.0322,547.1828 125.5391,547.1828 Q126.2446,547.1828 126.8921,547.3322 Q127.5396,547.4816 128.104,547.7805 L128.104,550.5031 Q127.4731,549.9221 126.8796,549.6523 Q126.2861,549.3825 125.6553,549.3825 Q124.3105,549.3825 123.6257,550.4492 Q122.9409,551.5158 122.9409,553.6159 Q122.9409,555.7077 123.6257,556.7744 Q124.3105,557.841 125.6553,557.841 Q126.2861,557.841 126.8796,557.5712 Q127.4731,557.3015 128.104,556.7204 Z " fill="#000000"/><text fill="#000000" font-family="sans-serif" font-size="14" lengthAdjust="spacing" textLength="55.9248" x="146.1309" y="558.591">BellNote</text><line style="stroke:#181818;stroke-width:0.5;" x1="8" x2="307.6865" y1="569.3" y2="569.3"/><rect fill="none" height="6" style="stroke:#C82930;stroke-width:1;" width="6" x="15" y="580.0441"/><text fill="#000000" font-family="sans-serif" font-size="14" lengthAdjust="spacing" textLength="71.1621" x="27" y="586.8352">note: Note</text><rect fill="none" height="6" style="stroke:#C82930;stroke-width:1;" width="6" x="15" y="596.5324"/><text fill="#000000" font-family="sans-serif" font-size="14" lengthAdjust="spacing" textLength="130.6348" x="27" y="603.3234">length: NoteLength</text><line style="stroke:#181818;stroke-width:0.5;" x1="8" x2="307.6865" y1="610.2766" y2="610.2766"/><ellipse cx="18" cy="624.0207" fill="#84BE84" rx="3" ry="3" style="stroke:#038048;stroke-width:1;"/><text fill="#000000" font-family="sans-serif" font-size="14" lengthAdjust="spacing" textLength="275.6865" x="27" y="627.8117">BellNote(note: Note, length: NoteLength)</text><ellipse cx="18" cy="640.509" fill="#84BE84" rx="3" ry="3" style="stroke:#038048;stroke-width:1;"/><text fill="#000000" font-family="sans-serif" font-size="14" lengthAdjust="spacing" textLength="103.6875" x="27" y="644.3">getNote(): Note</text><ellipse cx="18" cy="656.9973" fill="#84BE84" rx="3" ry="3" style="stroke:#038048;stroke-width:1;"/><text fill="#000000" font-family="sans-serif" font-size="14" lengthAdjust="spacing" textLength="164.9238" x="27" y="660.7883">getLength(): NoteLength</text></g><!--class Conductor--><g class="entity" data-entity="Conductor" data-source-line="10" data-uid="ent0003" id="entity_Conductor"><rect fill="#F1F1F1" height="212.8828" rx="2.5" ry="2.5" style="stroke:#181818;stroke-width:0.5;" width="329.5156" x="163.09" y="197.96"/><ellipse cx="287.9928" cy="213.96" fill="#ADD1B2" rx="11" ry="11" style="stroke:#181818;stroke-width:1;"/><path d="M290.466,220.1031 Q289.8849,220.4019 289.2458,220.5513 Q288.6066,220.7007 287.901,220.7007 Q285.3942,220.7007 284.0744,219.0489 Q282.7546,217.397 282.7546,214.2759 Q282.7546,211.1465 284.0744,209.4947 Q285.3942,207.8428 287.901,207.8428 Q288.6066,207.8428 289.2541,207.9922 Q289.9015,208.1416 290.466,208.4405 L290.466,211.1631 Q289.8351,210.5821 289.2416,210.3123 Q288.6481,210.0425 288.0172,210.0425 Q286.6725,210.0425 285.9877,211.1092 Q285.3029,212.1758 285.3029,214.2759 Q285.3029,216.3677 285.9877,217.4344 Q286.6725,218.501 288.0172,218.501 Q288.6481,218.501 289.2416,218.2312 Q289.8351,217.9615 290.466,217.3804 Z " fill="#000000"/><text fill="#000000" font-family="sans-serif" font-size="14" lengthAdjust="spacing" textLength="71.21" x="308.4928" y="219.251">Conductor</text><line style="stroke:#181818;stroke-width:0.5;" x1="164.09" x2="491.6056" y1="229.96" y2="229.96"/><rect fill="none" height="6" style="stroke:#C82930;stroke-width:1;" width="6" x="171.09" y="240.7041"/><text fill="#000000" font-family="sans-serif" font-size="14" lengthAdjust="spacing" textLength="109.416" x="183.09" y="247.4952">af: AudioFormat</text><rect fill="none" height="6" style="stroke:#C82930;stroke-width:1;" width="6" x="171.09" y="257.1924"/><text fill="#000000" font-family="sans-serif" font-size="14" lengthAdjust="spacing" textLength="100.4678" x="183.09" y="263.9834">thread: Thread</text><rect fill="none" height="6" style="stroke:#C82930;stroke-width:1;" width="6" x="171.09" y="273.6807"/><text fill="#000000" font-family="sans-serif" font-size="14" lengthAdjust="spacing" textLength="190.0596" x="183.09" y="280.4717">choir: Map&lt;Note, Member&gt;</text><rect fill="none" height="6" style="stroke:#C82930;stroke-width:1;" width="6" x="171.09" y="290.169"/><text fill="#000000" font-family="sans-serif" font-size="14" lengthAdjust="spacing" textLength="144.0811" x="183.09" y="296.96">song: List&lt;BellNote&gt;</text><rect fill="none" height="6" style="stroke:#C82930;stroke-width:1;" width="6" x="171.09" y="306.6573"/><text fill="#000000" font-family="sans-serif" font-size="14" lengthAdjust="spacing" textLength="150.8691" x="183.09" y="313.4483">STACCATO_PAUSE: int</text><line style="stroke:#181818;stroke-width:0.5;" x1="164.09" x2="491.6056" y1="320.4014" y2="320.4014"/><ellipse cx="174.09" cy="334.1455" fill="#84BE84" rx="3" ry="3" style="stroke:#038048;stroke-width:1;"/><text fill="#000000" font-family="sans-serif" font-size="14" lengthAdjust="spacing" textLength="189.7314" x="183.09" y="337.9366">Conductor(af: AudioFormat)</text><ellipse cx="174.09" cy="350.6338" fill="#84BE84" rx="3" ry="3" style="stroke:#038048;stroke-width:1;"/><text fill="#000000" font-family="sans-serif" font-size="14" lengthAdjust="spacing" textLength="303.5156" x="183.09" y="354.4248">parseNotes(filename: String): List&lt;BellNote&gt;</text><ellipse cx="174.09" cy="367.1221" fill="#84BE84" rx="3" ry="3" style="stroke:#038048;stroke-width:1;"/><text fill="#000000" font-family="sans-serif" font-size="14" lengthAdjust="spacing" textLength="108.1309" x="183.09" y="370.9131">playSong(): void</text><ellipse cx="174.09" cy="383.6104" fill="#84BE84" rx="3" ry="3" style="stroke:#038048;stroke-width:1;"/><text fill="#000000" font-family="sans-serif" font-size="14" lengthAdjust="spacing" textLength="69.7744" x="183.09" y="387.4014">run(): void</text><ellipse cx="174.09" cy="400.0987" fill="#84BE84" rx="3" ry="3" style="stroke:#038048;stroke-width:1;"/><text fill="#000000" font-family="sans-serif" font-size="14" lengthAdjust="spacing" textLength="167.4668" x="183.09" y="403.8897">main(args: String[]): void</text></g><!--class Member--><g class="entity" data-entity="Member" data-source-line="23" data-uid="ent0004" id="entity_Member"><rect fill="#F1F1F1" height="229.3711" rx="2.5" ry="2.5" style="stroke:#181818;stroke-width:0.5;" width="308.5498" x="343.57" y="487.84"/><ellipse cx="465.9606" cy="503.84" fill="#ADD1B2" rx="11" ry="11" style="stroke:#181818;stroke-width:1;"/><path d="M468.4338,509.9831 Q467.8527,510.2819 467.2136,510.4313 Q466.5744,510.5807 465.8688,510.5807 Q463.362,510.5807 462.0422,508.9289 Q460.7223,507.277 460.7223,504.1559 Q460.7223,501.0265 462.0422,499.3747 Q463.362,497.7228 465.8688,497.7228 Q466.5744,497.7228 467.2219,497.8722 Q467.8693,498.0216 468.4338,498.3205 L468.4338,501.0431 Q467.8029,500.4621 467.2094,500.1923 Q466.6159,499.9225 465.985,499.9225 Q464.6403,499.9225 463.9555,500.9892 Q463.2707,502.0558 463.2707,504.1559 Q463.2707,506.2477 463.9555,507.3144 Q464.6403,508.381 465.985,508.381 Q466.6159,508.381 467.2094,508.1112 Q467.8029,507.8415 468.4338,507.2604 Z " fill="#000000"/><text fill="#000000" font-family="sans-serif" font-size="14" lengthAdjust="spacing" textLength="55.2686" x="486.4606" y="509.131">Member</text><line style="stroke:#181818;stroke-width:0.5;" x1="344.57" x2="651.1198" y1="519.84" y2="519.84"/><rect fill="none" height="6" style="stroke:#C82930;stroke-width:1;" width="6" x="351.57" y="530.5841"/><text fill="#000000" font-family="sans-serif" font-size="14" lengthAdjust="spacing" textLength="200.3135" x="363.57" y="537.3752">songParts: List&lt;NoteLength&gt;</text><rect fill="none" height="6" style="stroke:#C82930;stroke-width:1;" width="6" x="351.57" y="547.0724"/><text fill="#000000" font-family="sans-serif" font-size="14" lengthAdjust="spacing" textLength="71.1621" x="363.57" y="553.8634">note: Note</text><rect fill="none" height="6" style="stroke:#C82930;stroke-width:1;" width="6" x="351.57" y="563.5607"/><text fill="#000000" font-family="sans-serif" font-size="14" lengthAdjust="spacing" textLength="100.4678" x="363.57" y="570.3517">thread: Thread</text><rect fill="none" height="6" style="stroke:#C82930;stroke-width:1;" width="6" x="351.57" y="580.049"/><text fill="#000000" font-family="sans-serif" font-size="14" lengthAdjust="spacing" textLength="138.1543" x="363.57" y="586.84">line: SourceDataLine</text><rect fill="none" height="6" style="stroke:#C82930;stroke-width:1;" width="6" x="351.57" y="596.5373"/><text fill="#000000" font-family="sans-serif" font-size="14" lengthAdjust="spacing" textLength="112.5059" x="363.57" y="603.3283">playing: boolean</text><rect fill="none" height="6" style="stroke:#C82930;stroke-width:1;" width="6" x="351.57" y="613.0255"/><text fill="#000000" font-family="sans-serif" font-size="14" lengthAdjust="spacing" textLength="147.6016" x="363.57" y="619.8166">hasNewNote: boolean</text><line style="stroke:#181818;stroke-width:0.5;" x1="344.57" x2="651.1198" y1="626.7697" y2="626.7697"/><ellipse cx="354.57" cy="640.5138" fill="#84BE84" rx="3" ry="3" style="stroke:#038048;stroke-width:1;"/><text fill="#000000" font-family="sans-serif" font-size="14" lengthAdjust="spacing" textLength="282.5498" x="363.57" y="644.3048">Member(note: Note, line: SourceDataLine)</text><ellipse cx="354.57" cy="657.0021" fill="#84BE84" rx="3" ry="3" style="stroke:#038048;stroke-width:1;"/><text fill="#000000" font-family="sans-serif" font-size="14" lengthAdjust="spacing" textLength="133.0068" x="363.57" y="660.7931">startMember(): void</text><ellipse cx="354.57" cy="673.4904" fill="#84BE84" rx="3" ry="3" style="stroke:#038048;stroke-width:1;"/><text fill="#000000" font-family="sans-serif" font-size="14" lengthAdjust="spacing" textLength="131.7217" x="363.57" y="677.2814">stopMember(): void</text><ellipse cx="354.57" cy="689.9787" fill="#84BE84" rx="3" ry="3" style="stroke:#038048;stroke-width:1;"/><text fill="#000000" font-family="sans-serif" font-size="14" lengthAdjust="spacing" textLength="216.7539" x="363.57" y="693.7697">assignPart(nl: NoteLength): void</text><ellipse cx="354.57" cy="706.467" fill="#84BE84" rx="3" ry="3" style="stroke:#038048;stroke-width:1;"/><text fill="#000000" font-family="sans-serif" font-size="14" lengthAdjust="spacing" textLength="69.7744" x="363.57" y="710.258">run(): void</text></g><!--class ConductorTest--><g class="entity" data-entity="ConductorTest" data-source-line="37" data-uid="ent0005" id="entity_ConductorTest"><rect fill="#F1F1F1" height="113.9531" rx="2.5" ry="2.5" style="stroke:#181818;stroke-width:0.5;" width="415.1904" x="120.25" y="7"/><ellipse cx="273.4775" cy="23" fill="#ADD1B2" rx="11" ry="11" style="stroke:#181818;stroke-width:1;"/><path d="M275.9507,29.1431 Q275.3696,29.4419 274.7305,29.5913 Q274.0913,29.7407 273.3857,29.7407 Q270.8789,29.7407 269.5591,28.0889 Q268.2393,26.437 268.2393,23.3159 Q268.2393,20.1865 269.5591,18.5347 Q270.8789,16.8828 273.3857,16.8828 Q274.0913,16.8828 274.7388,17.0322 Q275.3862,17.1816 275.9507,17.4805 L275.9507,20.2031 Q275.3198,19.6221 274.7263,19.3523 Q274.1328,19.0825 273.502,19.0825 Q272.1572,19.0825 271.4724,20.1492 Q270.7876,21.2158 270.7876,23.3159 Q270.7876,25.4077 271.4724,26.4744 Q272.1572,27.541 273.502,27.541 Q274.1328,27.541 274.7263,27.2712 Q275.3198,27.0015 275.9507,26.4204 Z " fill="#000000"/><text fill="#000000" font-family="sans-serif" font-size="14" lengthAdjust="spacing" textLength="100.2354" x="293.9775" y="28.291">ConductorTest</text><line style="stroke:#181818;stroke-width:0.5;" x1="121.25" x2="534.4404" y1="39" y2="39"/><rect fill="none" height="6" style="stroke:#C82930;stroke-width:1;" width="6" x="128.25" y="49.7441"/><text fill="#000000" font-family="sans-serif" font-size="14" lengthAdjust="spacing" textLength="112.0342" x="140.25" y="56.5352">TEST_DIR: String</text><line style="stroke:#181818;stroke-width:0.5;" x1="121.25" x2="534.4404" y1="63.4883" y2="63.4883"/><ellipse cx="131.25" cy="77.2324" fill="#84BE84" rx="3" ry="3" style="stroke:#038048;stroke-width:1;"/><text fill="#000000" font-family="sans-serif" font-size="14" lengthAdjust="spacing" textLength="167.4668" x="140.25" y="81.0234">main(args: String[]): void</text><rect fill="#F24D5C" height="6" style="stroke:#C82930;stroke-width:1;" width="6" x="128.25" y="90.7207"/><text fill="#000000" font-family="sans-serif" font-size="14" lengthAdjust="spacing" textLength="123.6895" x="140.25" y="97.5117">runAllTests(): void</text><rect fill="#F24D5C" height="6" style="stroke:#C82930;stroke-width:1;" width="6" x="128.25" y="107.209"/><text fill="#000000" font-family="sans-serif" font-size="14" lengthAdjust="spacing" textLength="389.1904" x="140.25" y="114">testFile(filepath: String, expectedValid: boolean): boolean</text></g><!--link Conductor to BellNote--><g class="link" data-entity-1="Conductor" data-entity-2="BellNote" data-source-line="44" data-uid="lnk6" id="link_Conductor_BellNote"><path codeLine="44" d="M267.19,411.05 C243.06,453.08 219.0672,494.8765 197.9472,531.6665" fill="none" id="Conductor-to-BellNote" style="stroke:#181818;stroke-width:1;"/><polygon fill="#181818" points="194.96,536.87,202.9098,531.0562,197.4493,532.5337,195.9718,527.0732,194.96,536.87" style="stroke:#181818;stroke-width:1;"/><text fill="#000000" font-family="sans-serif" font-size="13" lengthAdjust="spacing" textLength="28.5645" x="248.94" y="454.4084">uses</text></g><!--link Conductor to Member--><g class="link" data-entity-1="Conductor" data-entity-2="Member" data-source-line="45" data-uid="lnk7" id="link_Conductor_Member"><path codeLine="45" d="M388.5,411.05 C402.71,435.8 414.9127,457.0765 429.3227,482.1765" fill="none" id="Conductor-to-Member" style="stroke:#181818;stroke-width:1;"/><polygon fill="#181818" points="432.31,487.38,431.298,477.5833,429.8206,483.0438,424.3601,481.5664,432.31,487.38" style="stroke:#181818;stroke-width:1;"/><text fill="#000000" font-family="sans-serif" font-size="13" lengthAdjust="spacing" textLength="56.5386" x="413.84" y="454.4084">manages</text></g><!--link ConductorTest to Conductor--><g class="link" data-entity-1="ConductorTest" data-entity-2="Conductor" data-source-line="46" data-uid="lnk8" id="link_ConductorTest_Conductor"><path codeLine="46" d="M327.84,121.18 C327.84,144.03 327.84,165.22 327.84,191.53" fill="none" id="ConductorTest-to-Conductor" style="stroke:#181818;stroke-width:1;stroke-dasharray:7.0,7.0;"/><polygon fill="#181818" points="327.84,197.53,331.84,188.53,327.84,192.53,323.84,188.53,327.84,197.53" style="stroke:#181818;stroke-width:1;"/><text fill="#000000" font-family="sans-serif" font-size="13" lengthAdjust="spacing" textLength="30.2212" x="328.84" y="164.5284">tests</text></g><!--SRC=[XLF9QiCm4BtdAtHqoF818WJSB518qb2xlPGI9hRY21J9I78NIl-zqdXDwjAJhJUBtdipIWGOG-wO43jb6VaQ438XqlrIuW4y2YOpUow13VuxUDGK1Mtwk2TtYCaPivWxRFeYLgRKQDNyUp18aDP2oRH8hD8LBpXH4XOfLskbBs0HisVD8AKanYz2oLbnJSaMybb9QiikHwRd63HAPfHikB6pMa0PYE9miGZZXyC-V8fMb71faML38hYvlXIMWpRCTp71YJlrS75UH5PpcGrxxd450ZuZHyABVbCyHL0Nykfy0Iu3q9cfUxsyrk76dL9LPOsNjGTjJNLdQ-UyRwGzhWakFNDLw8GjmSB6dJ7W2NDlsb4fmK0YU0QpO-yxxDhYeuhKzKhqD2wzCzOnhYgwwerLUG_iHFDCUfM155ShzeUJlnSfPiPMZiMhA3uixnzhX__ptTUuvg4Glea9khYRlbsxwUCAvE0VG5a-9kmZPubbwJC8dZPU3LlN7CbspoUJUViOAIaCCpVHQkhKKPMGTSEeRJgTTvuDHMPcy0C0]--></g></svg>